<mxfile host="app.diagrams.net" modified="2023-10-18T13:02:10.713Z" agent="Mozilla/5.0 (Windows NT 10.0; Win64; x64) AppleWebKit/537.36 (KHTML, like Gecko) Chrome/114.0.0.0 Safari/537.36" etag="i4S5W76vnb07i2I1B7rH" version="22.0.4" type="device">
  <diagram name="Страница — 1" id="QUHNNN9SJuGW9o2rFol6">
    <mxGraphModel dx="1434" dy="764" grid="1" gridSize="10" guides="1" tooltips="1" connect="1" arrows="1" fold="1" page="1" pageScale="1" pageWidth="827" pageHeight="1169" math="0" shadow="0">
      <root>
        <mxCell id="0" />
        <mxCell id="1" parent="0" />
        <mxCell id="8iBYdiuawHTZnpX_c4EL-6" value="" style="edgeStyle=orthogonalEdgeStyle;rounded=0;orthogonalLoop=1;jettySize=auto;html=1;" edge="1" parent="1" source="8iBYdiuawHTZnpX_c4EL-1" target="8iBYdiuawHTZnpX_c4EL-5">
          <mxGeometry relative="1" as="geometry" />
        </mxCell>
        <mxCell id="8iBYdiuawHTZnpX_c4EL-1" value="Start" style="ellipse;whiteSpace=wrap;html=1;aspect=fixed;" vertex="1" parent="1">
          <mxGeometry x="440" width="80" height="80" as="geometry" />
        </mxCell>
        <mxCell id="8iBYdiuawHTZnpX_c4EL-3" value="&lt;p class=&quot;MsoNormal&quot; style=&quot;font-size: 14px;&quot;&gt;Алгоритм нахождения скалярного&#xa;произведения двух векторов&lt;/p&gt;" style="text;whiteSpace=wrap;html=1;fontSize=14;" vertex="1" parent="1">
          <mxGeometry width="260" height="80" as="geometry" />
        </mxCell>
        <mxCell id="8iBYdiuawHTZnpX_c4EL-8" value="" style="edgeStyle=orthogonalEdgeStyle;rounded=0;orthogonalLoop=1;jettySize=auto;html=1;" edge="1" parent="1" source="8iBYdiuawHTZnpX_c4EL-5" target="8iBYdiuawHTZnpX_c4EL-7">
          <mxGeometry relative="1" as="geometry" />
        </mxCell>
        <mxCell id="8iBYdiuawHTZnpX_c4EL-5" value="firstVector = [3, 4]&lt;br&gt;secondVector = [5, 6]&lt;br&gt;size = 2" style="rounded=0;whiteSpace=wrap;html=1;" vertex="1" parent="1">
          <mxGeometry x="400" y="120" width="160" height="60" as="geometry" />
        </mxCell>
        <mxCell id="8iBYdiuawHTZnpX_c4EL-10" value="" style="edgeStyle=orthogonalEdgeStyle;rounded=0;orthogonalLoop=1;jettySize=auto;html=1;" edge="1" parent="1" source="8iBYdiuawHTZnpX_c4EL-7" target="8iBYdiuawHTZnpX_c4EL-9">
          <mxGeometry relative="1" as="geometry" />
        </mxCell>
        <mxCell id="8iBYdiuawHTZnpX_c4EL-7" value="index = 0&lt;br&gt;scalarProduct = 0" style="whiteSpace=wrap;html=1;rounded=0;" vertex="1" parent="1">
          <mxGeometry x="420" y="220" width="120" height="60" as="geometry" />
        </mxCell>
        <mxCell id="8iBYdiuawHTZnpX_c4EL-12" value="" style="edgeStyle=orthogonalEdgeStyle;rounded=0;orthogonalLoop=1;jettySize=auto;html=1;" edge="1" parent="1" source="8iBYdiuawHTZnpX_c4EL-9" target="8iBYdiuawHTZnpX_c4EL-11">
          <mxGeometry relative="1" as="geometry" />
        </mxCell>
        <mxCell id="8iBYdiuawHTZnpX_c4EL-13" value="Yes" style="edgeLabel;html=1;align=center;verticalAlign=middle;resizable=0;points=[];" vertex="1" connectable="0" parent="8iBYdiuawHTZnpX_c4EL-12">
          <mxGeometry y="1" relative="1" as="geometry">
            <mxPoint y="-10" as="offset" />
          </mxGeometry>
        </mxCell>
        <mxCell id="8iBYdiuawHTZnpX_c4EL-19" value="" style="edgeStyle=orthogonalEdgeStyle;rounded=0;orthogonalLoop=1;jettySize=auto;html=1;" edge="1" parent="1" source="8iBYdiuawHTZnpX_c4EL-9" target="8iBYdiuawHTZnpX_c4EL-18">
          <mxGeometry relative="1" as="geometry" />
        </mxCell>
        <mxCell id="8iBYdiuawHTZnpX_c4EL-20" value="No" style="edgeLabel;html=1;align=center;verticalAlign=middle;resizable=0;points=[];" vertex="1" connectable="0" parent="8iBYdiuawHTZnpX_c4EL-19">
          <mxGeometry y="2" relative="1" as="geometry">
            <mxPoint y="-7" as="offset" />
          </mxGeometry>
        </mxCell>
        <mxCell id="8iBYdiuawHTZnpX_c4EL-9" value="index &amp;lt; size" style="rhombus;whiteSpace=wrap;html=1;rounded=0;" vertex="1" parent="1">
          <mxGeometry x="400" y="320" width="160" height="80" as="geometry" />
        </mxCell>
        <mxCell id="8iBYdiuawHTZnpX_c4EL-16" value="" style="edgeStyle=orthogonalEdgeStyle;rounded=0;orthogonalLoop=1;jettySize=auto;html=1;" edge="1" parent="1" source="8iBYdiuawHTZnpX_c4EL-11" target="8iBYdiuawHTZnpX_c4EL-15">
          <mxGeometry relative="1" as="geometry" />
        </mxCell>
        <mxCell id="8iBYdiuawHTZnpX_c4EL-11" value="scalarProduct&amp;nbsp; = scalarProduct&amp;nbsp; + firstVector[index] * secondVector[index]" style="whiteSpace=wrap;html=1;rounded=0;" vertex="1" parent="1">
          <mxGeometry x="80" y="330" width="220" height="60" as="geometry" />
        </mxCell>
        <mxCell id="8iBYdiuawHTZnpX_c4EL-17" style="edgeStyle=orthogonalEdgeStyle;rounded=0;orthogonalLoop=1;jettySize=auto;html=1;entryX=0.5;entryY=0;entryDx=0;entryDy=0;" edge="1" parent="1" source="8iBYdiuawHTZnpX_c4EL-15" target="8iBYdiuawHTZnpX_c4EL-9">
          <mxGeometry relative="1" as="geometry">
            <Array as="points">
              <mxPoint x="50" y="450" />
              <mxPoint x="50" y="300" />
              <mxPoint x="480" y="300" />
            </Array>
          </mxGeometry>
        </mxCell>
        <mxCell id="8iBYdiuawHTZnpX_c4EL-15" value="index = index + 1" style="whiteSpace=wrap;html=1;rounded=0;" vertex="1" parent="1">
          <mxGeometry x="130" y="420" width="120" height="60" as="geometry" />
        </mxCell>
        <mxCell id="8iBYdiuawHTZnpX_c4EL-22" value="" style="edgeStyle=orthogonalEdgeStyle;rounded=0;orthogonalLoop=1;jettySize=auto;html=1;" edge="1" parent="1" source="8iBYdiuawHTZnpX_c4EL-18" target="8iBYdiuawHTZnpX_c4EL-21">
          <mxGeometry relative="1" as="geometry" />
        </mxCell>
        <mxCell id="8iBYdiuawHTZnpX_c4EL-18" value="scalarProduct&amp;nbsp;" style="shape=document;whiteSpace=wrap;html=1;boundedLbl=1;rounded=0;" vertex="1" parent="1">
          <mxGeometry x="660" y="320" width="120" height="80" as="geometry" />
        </mxCell>
        <mxCell id="8iBYdiuawHTZnpX_c4EL-21" value="End" style="ellipse;whiteSpace=wrap;html=1;rounded=0;" vertex="1" parent="1">
          <mxGeometry x="680" y="480" width="80" height="80" as="geometry" />
        </mxCell>
      </root>
    </mxGraphModel>
  </diagram>
</mxfile>
